# xmcd
#
# Track frame offsets: 
#        150
#        29895
#        44707
#        85529
#        107918
#        129975
#        153308
#        168317
#        185965
#        210514
#        229369
#
# Disc length: 3330 seconds
#
# Revision: 0
# Processed by: cddbd v1.5.2PL0 Copyright (c) Steve Scherf et al.
# Submitted via: ExactAudioCopy v0.99pb3
#
DISCID=9a0d000b
DTITLE=Paul Lamb and The King Snakes - Snakes and Ladders
DYEAR=2007
DGENRE=Blues
TTITLE0=Crazy For Me
TTITLE1=Money World
TTITLE2=Adopted Child
TTITLE3=Far Far Away
TTITLE4=Things I Used To Do
TTITLE5=Sweet Sweet Woman
TTITLE6=You Better Mind
TTITLE7=Easy Rider
TTITLE8=I Got My Mojo Workin'
TTITLE9=Mr. Lamb's Jump
TTITLE10=I Got A Woman
EXTD=
EXTT0=
EXTT1=
EXTT2=
EXTT3=
EXTT4=
EXTT5=
EXTT6=
EXTT7=
EXTT8=
EXTT9=
EXTT10=
PLAYORDER=
